<svg xmlns="http://www.w3.org/2000/svg"><symbol id="power" viewBox="0 0 256 256"><path d="M143.6 128h-31.2V34.4h31.2zm32.9-79.9L167 60.6a78 78 0 1 1-78 0l-9.5-12.5a93.6 93.6 0 1 0 97 0z"/></symbol><symbol id="stop" viewBox="0 0 256 256"><path d="M130.1 53.2v71.7c0 3.2 5.8 3.3 5.8 0V64.7c0-11.4 20.1-11.7 20.1 0v68.2c0 4.2 4.1 4.8 5.7 1.7l7.6-16.7c6.2-13 26.9-5.1 20.4 10.1-1.6 4.1-21.3 49-26.4 60.3s-15.5 23.6-34.6 23.6H95.6c-20 0-30.6-11.9-30.6-32.7V88.5c0-12.1 16.6-11.4 16.6-.6v39.8c0 3.3 6 3.3 6 0V63.8c0-12.4 18.6-12.1 18.6 0v60.4c0 3.3 5.5 3.1 5.5-.1V53.2c0-12 18.4-12.4 18.4 0zM121 27.3A26 26 0 0 0 99.8 38c-15.4-1.7-28.5 9.6-28.9 24.9-13.1 1.2-22.6 11.8-22.6 25.6v90.7c0 30.6 18.1 49.5 47.3 49.5h33.1c22.6 0 40.3-11.9 50-33.6 3.7-8.2 24.1-54.5 26.6-60.8 3.9-9.4 3.1-19.3-2.1-27.1a28.8 28.8 0 0 0-30.4-11.9V64.7c0-16.1-13.8-26.9-29.7-25.3-4.4-7.4-12.5-12.1-22.1-12.1z"/></symbol><symbol id="backward" viewBox="0 0 256 256"><path d="M136.1 128l89.1 56.7V71.3zm0-56.7v113.4l-81-56.7zM30.8 79.4h24.3v97.2H30.8z"/></symbol><symbol id="warning" viewBox="0 0 256 256"><path d="M128 65.5l79 144.9H49zm0-38.2L18.1 228.7h219.8zm-9.2 82.4h18.4v54.9h-18.4zM128 199a11.5 11.5 0 1 1 11.4-11.5A11.5 11.5 0 0 1 128 199z"/></symbol><symbol id="tel" viewBox="0 0 256 256"><path d="M57.4 38.4l23.9-11.1 33.9 66.2-22.9 11.3c-4.5 10.5 18.1 52.7 27.7 53.4l22.4-11.1 34.5 66.6-23.9 11.7C87 255.5-7.4 72.1 57.4 38.4zm16.2 10.7L65 53.3c-44.4 23.2 35.1 177.8 81 156.8l8.2-3.9-19.1-36.8-8.6 4.2c-26.6 13-69.4-69-42.5-83.5l8.5-4.1zm65.7 64.2l24.5 7.3a25.5 25.5 0 0 0-17.2-31.8zm15.2-50.9a53.1 53.1 0 0 1 35.7 66l-15.1-4.5A37.2 37.2 0 0 0 150 77.5zm8-26.7a80.7 80.7 0 0 1 54.4 100.7l-15.4-4.6a64.9 64.9 0 0 0-43.6-80.7z"/></symbol><symbol id="forward" viewBox="0 0 256 256"><path d="M119.9 128l-89.1 56.7V71.3zm0-56.7v113.4l81-56.7zm105.3 8.1h-24.3v97.2h24.3z"/></symbol><symbol id="pause" viewBox="0 0 256 256"><path d="M118 227.7H78.1V28.3H118zm59.9-199.4H138v199.4h39.9z"/></symbol></svg>