<svg xmlns="http://www.w3.org/2000/svg" width="2000" height="2000" viewBox="0 0 2000 2000"><g fill="none" stroke="#89d4e5" stroke-miterlimit="10" stroke-width="10"><path d="M416.5 351.2c-8.7 3.8-17.7 8.2-22.9 16.2-12.6 19.2 3.9 44.2 21.5 59.2s39 31.8 37.3 54.8c-1.9 26.3-34.7 45.6-29.6 71.6 3.4 17.3 21.8 26.4 37.2 34.8a243.4 243.4 0 0 1 111.1 127.6c3.5 9.4 6.5 19.6 4.5 29.4-2.6 12.9-13 22.5-22.9 31.2-68.8 60.6-144.7 124.3-236.2 130.6-40.6 2.7-93.5.5-108.2 38.5-4.3 11.2-3.7 23.7-5.2 35.6-4.6 37.4-28.6 68.9-47.5 101.4-46.5 79.9-64.8 175.8-51.2 267.2 4 26.7 10.6 53.1 11.5 80.2 1.8 57.5-22.7 113.6-20.7 171.1s51 122.1 106 105c30.9-9.6 50.8-41.5 81.7-51 16.4-5 34-3.1 51.1-1.1 58.2 6.7 117.3 13.6 171.5 35.9s102.7 60.3 155.1 88.8c132.8 72.3 289.7 83 440.9 84.3 100.2.8 202.5-2.2 297-35.5s181.5-102.1 213.5-197.1c4.3-12.6 7.5-26.4 3.3-39s-14.4-21.5-24.6-29.7a963.5 963.5 0 0 0-96.5-68.7c-23.6-14.7-50.5-32.2-54.1-59.9-2.6-19.3 7.6-38 18.5-54.2a388.2 388.2 0 0 1 145.2-127.6c77.7-39.3 171.2-54 231.9-116.5 49.5-50.9 67.6-125.1 69.2-196.1s-11.2-141.4-14-212.4c-1.5-36.3-.4-73.1-9.6-108.3-24.5-93.7-114.9-153.4-202-195.6s-182.8-79.6-240.3-157.5c-16.6-22.6-29.7-48.1-50.1-67.3-34.5-32.5-84.6-41.8-131.9-45.9-60.4-5.2-122.5-4.1-180.1 15.1S966.6 224.8 941.4 280c-12.4 27.2-21.1 60.9-48.7 72.4s-59.1-7.2-80.4-28.6-41-47.6-70.1-55.7-67.9 17.8-57 46c1.8 4.7 4.9 9.3 3.9 14.3s-9.3 7.3-10.5 2.4c0 0-176.9-16.6-262.1 20.4z"/><path d="M1361.2 256.5c-57.1-41.2-128.7-62.6-198.9-57.5s-138.6 36.9-186.3 88.7c-24.4 26.4-43.8 58-72.4 79.8-22.6 17.2-50.9 28.3-66.7 51.9-26.8 39.8-6 92.5-.8 140.2A205.6 205.6 0 0 1 808 687.1c-26.1 43.2-68 76.5-87.2 123.2-8 19.5-11.5 42.4-2.5 61.5 5.8 12.1 16 21.5 26.4 30.1a424 424 0 0 0 137.5 75.5c83.5 27.4 177.3 29.7 249.7 79.5 45.9 31.6 78.3 79.3 122.7 113 60.3 45.8 139.2 62.1 214.8 58.3s149.2-26.2 220.5-51.5c26.8-9.5 53.9-19.8 75.4-38.3 27.1-23.5 42.2-57.6 56.3-90.5 25.6-59.7 51.1-122.9 43.8-187.4-4.2-37.3-19.2-72.4-34-106.9q-28.8-67.1-57.5-134c-11.1-25.8-22.6-52.2-41.5-72.9-38-41.5-97.8-52.5-148.8-76.3-26.2-12.2-51.5-28.9-66.6-53.6-7.8-12.8-12.5-27.3-19.8-40.4-10.6-19.1-26.2-35-42.7-49.3-33-28.5-93.3-70.6-93.3-70.6z"/><path d="M1225.5 229.7c-81.1-.5-151.9 51.6-216 101.2-46.1 35.7-94.3 74.2-115.2 128.6-7 18.3-10.6 37.6-14.1 56.9l-43.4 234.7c-1.4 7.2-2.6 15.1.9 21.5s8.9 8.8 14.5 11.8c40.6 21.4 81.3 43 124.3 59 50.4 18.8 106 31.1 144.4 68.8 15.7 15.3 27.5 34 40.3 51.7 62.7 86.8 152.9 153.4 254.3 188 82.9 28.2 178.2 34 255.3-7.5 40.4-21.8 73.7-55.5 98.9-93.9 32.4-49.3 52.1-106.7 59-165.3 4.4-37.1 3.5-76.2-12.9-109.8-12.8-26.3-34.2-47.4-56.9-65.9-96.3-78.1-221.6-115.8-313-199.7-41.6-38.3-74.9-85.3-101-135.5-18.5-35.5-33.9-73.4-59.8-103.9s-59.6-40.7-59.6-40.7z"/><path d="M1207.9 259.4a486.5 486.5 0 0 0-222.5 114.9 214 214 0 0 0-20.1 20.3c-16.6 19.7-27.5 43.6-37 67.6a839.3 839.3 0 0 0-57.6 260.2c-.5 8.1-.8 16.6 2.3 24.1 5.8 14 21.4 20.7 35.6 26.2 23.4 8.9 47 17.9 71.9 21.4 50.7 7 102.9-9.6 153.1.8 69.4 14.3 117.3 75.5 174.2 117.9 82.8 61.6 193.2 84.6 293.7 61 44.1-10.3 89.1-31.8 110.5-71.7 11-20.5 14.8-44.1 15.6-67.3.4-10.2.1-20.8-4.7-29.8s-15.8-16.6-25.8-22.3c-68.5-38.4-145.5-61.4-209.4-106.9-103.4-73.7-159.4-196.5-197.8-317.5-7.7-24.4-15.2-49.6-30.9-69.8s-51.1-29.1-51.1-29.1z"/><path d="M1132.2 310.1c-22.4 16.5-40 38.5-60.5 57.3-34.6 31.9-77.7 54.8-107 91.6-39.2 49.4-47.7 115.6-54.7 178.2-3.5 31-5.6 66.4 16 88.9 18.7 19.4 48.3 21.9 75.2 23.2l228 11c27.2 1.3 57.5 1.5 77.6-16.9 15.5-14.3 20.7-36.2 25.3-56.7 3.5-16.2 7-33.6 1.1-49.1-5.4-13.9-17.5-23.9-27.5-35-41.4-45.8-47.6-113.9-39-175.1 2.7-19.1 6.5-39.4-1.2-57.1-4.5-10.1-12.2-18.3-19.9-26.2-20.2-21.1-30.1-66-60.6-63.3s-30.3 12.8-52.8 29.2z"/><path d="M1103.3 371.7c-13.8 21.3-22.1 45.5-33.1 68.3-30.1 62.3-81.2 114.8-98.3 181.8-2.8 10.9-4.5 23.3 1.5 32.9s18.3 13.6 29.5 16.4a997.3 997.3 0 0 0 189 29.8c15.9.9 35.3-.4 42.7-14.5 4.6-8.8 2.6-19.4 3.6-29.3s5.4-19.8 7-30c3.2-21.9-6.8-43.3-13.7-64.3a238.7 238.7 0 0 1-7-121.5c3.4-16.6 8.6-33 9.1-50s-4.6-35.2-18-45.5c-20.5-15.9-98.5 4.7-112.3 25.9z"/><path d="M1128.7 420.2a219 219 0 0 0-22.6 42.8c-15 37.9-20 81-45.8 112.6-9.6 11.9-22.7 24.2-20.4 39.3 1.6 10 10.1 17.9 19.7 21.5s19.9 3.8 30.1 3.9l60.5.8c6.2.1 12.6.1 18.3-2.2s11.1-7.8 15.4-13.1c11-13.7 20-29.4 23-46.7 10.8-61.8-55.6-117.9-43.9-179.4-15.2-3.9-34.3 20.5-34.3 20.5z"/><path d="M1133.5 504.7a92.7 92.7 0 0 0-37.5 46c-8.1 21.4-4.9 50.8 16 60.3 15 7 33.8.1 44.2-12.8s13.5-30.3 12.9-46.9-6.6-35.5-21.7-42.8a48.5 48.5 0 0 0-13.9-3.8z"/></g><path fill="#89d4e5" d="M147.9 129.8l36.9 1.6-21.3 30.1-1.6 36.8-30.1-21.2-36.8-1.6 21.2-30.1L95 73.6l52.9 56.2z"/><path fill="#fdd31b" d="M1612 1576.3l45.3 6.2-32.5 32.2 8.2 44.9-40.7-20.9-40.2 21.7 7.3-45.1-33-31.6 45.1-7 19.9-41.2 20.6 40.8z"/><path fill="#ee3354" d="M761.9 1383.8l-61-105.7a23.1 23.1 0 0 0-40 0l-61 105.7a23.1 23.1 0 0 0 20 34.6h122c17.8 0 28.9-19.3 20-34.6zm-68.5-81.1l-.9 21.4-3.4 37.5h-16.3l-3.5-37.5-.9-21.4zm-12.5 98.9c-9.2 0-15.9-6.8-15.9-16.1s6.6-15.8 15.9-15.8 16 6.5 16 15.8-6.7 16.1-16 16.1z"/></svg>